<svg width="16" height="17" viewBox="0 0 16 17" fill="none" xmlns="http://www.w3.org/2000/svg">
<g id="clipboard-2">
<path id="Vector" fill-rule="evenodd" clip-rule="evenodd" d="M4.66667 2.99998C4.66667 2.35565 5.189 1.83331 5.83333 1.83331H10.1667C10.811 1.83331 11.3333 2.35565 11.3333 2.99998V3.16665H12.8333C13.4777 3.16665 14 3.68898 14 4.33331V14C14 14.6443 13.4777 15.1666 12.8333 15.1666H3.16667C2.52233 15.1666 2 14.6443 2 14V4.33331C2 3.68898 2.52233 3.16665 3.16667 3.16665H4.66667V2.99998ZM5.66667 4.66665C5.66667 4.75869 5.74129 4.83331 5.83333 4.83331H10.1667C10.2587 4.83331 10.3333 4.75869 10.3333 4.66665V2.99998C10.3333 2.90793 10.2587 2.83331 10.1667 2.83331H5.83333C5.74129 2.83331 5.66667 2.90793 5.66667 2.99998V4.66665Z" fill="#64748B"/>
</g>
</svg>
