<svg width="200" height="200" viewBox="0 0 200 200" fill="none" xmlns="http://www.w3.org/2000/svg">
<g clip-path="url(#clip0_147_781)">
<path d="M166.057 100.428C166.057 100.417 166.046 100.406 166.046 100.406C166.024 100.361 166.001 100.326 165.99 100.281C164.465 97.2434 164.228 93.5161 163.369 90.24C162.59 87.2244 161.573 84.2881 160.523 81.3499C158.377 77.2723 156.23 73.1951 154.061 69.1281C151.532 64.4065 150.041 59.438 148.064 54.5346C147.07 52.0507 146.392 49.5763 145.963 47.0455C145.624 46.0969 145.285 45.1597 144.946 44.211C144.946 44.1996 144.946 44.1996 144.935 44.1894C142.63 40.0761 140.327 35.9655 138 31.8654C138 31.8534 138 31.8534 138 31.8534C137.525 31.0057 137.04 30.1589 136.553 29.3112C133.9 24.7482 131.437 20.0161 127.879 16.0737C125.687 13.6568 123.101 11.5901 120.311 9.89525C120.311 9.89525 120.311 9.89525 120.3 9.89525C119.52 9.42121 118.718 8.96853 117.916 8.55068C117.87 8.51764 117.815 8.4942 117.758 8.47258C112.867 6.06612 108.112 4.69872 103.231 4.26978C101.595 4.25835 99.9457 4.3037 98.3185 4.38302C96.5681 4.46112 94.76 4.56384 92.93 4.73268C91.9937 4.87988 91.0558 5.06011 90.1063 5.27578C85.0684 6.23495 80.065 7.54557 75.5126 9.9295C75.3206 10.0415 75.1395 10.1548 74.9475 10.268C73.299 12.7751 71.0971 14.8989 69.1875 17.2035C66.9733 19.8578 66.262 23.1678 64.1496 25.923C63.9579 26.1835 63.7549 26.455 63.5509 26.7248C63.5055 26.7822 63.4725 26.8272 63.4274 26.884C63.4274 26.9294 63.4274 26.9849 63.4151 27.03C63.4151 27.0979 63.4151 27.1556 63.4043 27.2226C63.3929 27.3244 63.3821 27.4139 63.3698 27.5157C63.2232 28.6236 62.8281 29.4593 62.0715 30.0571C61.2463 31.1415 60.1288 32.6549 58.7954 33.7967C58.3213 35.0048 57.8125 36.2025 57.4968 37.4678C57.282 38.3599 57.2258 39.2527 57.124 40.1215C57.09 40.4834 57.0339 40.8445 56.9545 41.2059V41.2173C56.9434 41.3197 56.92 41.3981 56.8984 41.4991C57.282 41.7941 57.7001 42.0641 58.1964 42.3014C58.2084 42.3014 58.2198 42.3137 58.2306 42.3137C58.4908 42.4495 58.7842 42.573 59.112 42.7088H59.1231C59.4956 42.855 59.8909 42.9908 60.3211 43.1266C60.6145 43.217 60.9077 43.3074 61.2246 43.3982H61.2697C61.3929 43.4312 61.507 43.4651 61.6422 43.4991C62.0153 43.5895 62.4103 43.6679 62.7942 43.7253C63.6975 43.883 64.6131 43.9509 65.4259 43.883C65.4941 43.6913 65.5836 43.4991 65.6975 43.3074C66.036 42.7313 66.5897 42.1996 67.1887 41.9629C67.3464 41.8845 67.5044 41.8394 67.663 41.816C67.7645 41.7941 67.8772 41.782 67.9787 41.7706C68.0469 41.7601 68.1031 41.749 68.1706 41.7367C68.5212 41.6799 68.8375 41.6913 69.1421 41.715C69.1767 41.6913 69.2097 41.6697 69.2325 41.6469V41.6348C69.3233 41.5678 69.4137 41.4991 69.5044 41.4216C69.5044 41.5225 69.4921 41.6243 69.4921 41.7253V41.7367C69.4921 41.749 69.4921 41.749 69.4921 41.7601C69.5606 41.7706 69.6276 41.782 69.6849 41.8055C69.696 41.8055 69.7069 41.816 69.718 41.816C69.8084 41.8394 69.8991 41.8611 69.9787 41.8953C70.2497 41.9857 70.4978 42.1092 70.712 42.2684C70.8366 42.3468 70.949 42.4372 71.0625 42.5381C71.4014 42.8211 71.6618 43.1831 71.8415 43.5793C72.4402 44.8316 72.1812 46.4589 70.6213 47.5538C70.712 47.4868 70.4638 50.096 70.4527 50.5139C70.3842 51.7227 70.4638 52.954 70.4978 54.1613C70.5651 56.3755 70.3731 58.3866 70.0127 60.477C71.0064 65.0403 69.3001 69.411 65.0643 71.5685C59.8687 74.2116 54.9212 73.6241 49.3861 72.98C45.445 72.5294 40.599 72.7319 37.1078 74.7538C35.7077 75.5562 34.7813 77.0585 34.1826 78.8774C34.5335 80.3907 34.2733 82.0958 34.4196 83.644C34.6005 85.4959 35.1544 87.3151 34.9279 89.1106C34.9846 89.1896 35.0529 89.2575 35.0982 89.3482C37.9219 93.9562 39.9318 99.2984 41.7739 104.371C43.5462 109.239 45.7835 113.939 46.0881 119.179C46.1113 119.653 46.1221 120.117 46.1332 120.592C46.1563 120.659 46.1674 120.727 46.1894 120.794C46.8226 124.093 46.8226 127.424 47.0145 130.757C47.3765 137.025 47.4095 143.328 47.2065 149.621C47.2065 149.632 47.1957 149.632 47.2065 149.642C47.1833 150.128 47.1725 150.626 47.1503 151.123C47.0145 154.387 46.7994 157.651 46.6306 160.927C46.5624 162.046 46.5402 163.153 46.484 164.226C46.484 164.316 46.4717 164.395 46.4717 164.486C46.8118 164.588 47.1611 164.678 47.5111 164.723C48.0536 164.824 48.6072 164.87 49.172 164.881C49.4423 164.881 49.7139 164.87 49.9962 164.857C50.007 164.857 50.007 164.857 50.007 164.857C50.1774 164.857 50.3348 164.847 50.5048 164.824C50.5718 164.824 50.6514 164.812 50.7199 164.802C50.7199 164.802 50.7199 164.802 50.7307 164.802C52.391 164.643 54.0179 164.226 55.4631 163.808C55.655 163.751 55.8248 163.706 56.0164 163.672C56.0164 163.672 56.0164 163.672 56.0278 163.672C56.3441 163.593 56.6719 163.548 56.9885 163.525C57.0228 163.469 57.0672 163.413 57.1122 163.356C57.2024 163.107 57.3382 162.87 57.519 162.633L57.8698 162.147C57.9374 162.057 58.0044 161.966 58.084 161.887C58.5016 161.391 58.9759 161.052 59.4505 160.836C60.0267 160.576 60.6485 160.509 61.2246 160.588C61.2354 160.588 61.2463 160.588 61.2463 160.588C63.1559 160.859 64.7597 162.734 64.2622 164.723C64.6017 164.96 64.9516 165.198 64.997 165.219C65.5725 165.57 66.262 165.942 66.9174 166.247C66.9285 166.259 66.9393 166.259 66.9505 166.259C67.1998 166.383 67.4476 166.485 67.6741 166.575C67.6963 166.575 67.7083 166.586 67.7303 166.597C67.8429 166.507 67.9333 166.428 68.0469 166.327H68.0577C68.9051 165.66 69.7976 165.062 70.8024 164.857C71.9772 164.633 73.141 164.881 74.0551 165.57C74.18 165.648 74.2927 165.75 74.4062 165.852C74.5186 165.954 74.6201 166.056 74.7105 166.18C74.7787 166.247 74.8352 166.315 74.8914 166.383C74.9475 166.451 75.0052 166.53 75.0383 166.597C75.6604 167.513 75.5922 168.28 75.5126 169.218V169.229C75.4903 169.524 75.4672 169.828 75.4672 170.156C75.4564 170.788 75.5126 171.398 75.6261 171.975C75.7165 172.482 75.84 172.957 76.0097 173.432C76.2585 174.154 76.5859 174.832 76.9929 175.499C77.3423 176.096 77.7496 176.673 78.1897 177.25C78.2462 177.317 78.3029 177.396 78.3597 177.464C78.4501 177.577 78.5403 177.713 78.631 177.86C78.8902 178.254 79.1834 178.707 79.5454 178.864C79.6361 178.909 79.7373 178.932 79.8509 178.944C80.065 178.99 80.3023 178.99 80.5625 179C80.5625 179 80.5625 179 80.5733 179C80.7436 179.011 80.9118 179.023 81.0822 179.057C81.2396 179.079 81.3862 179.112 81.5219 179.181C81.5781 179.203 81.6346 179.237 81.6923 179.271C81.8839 179.373 82.0759 179.486 82.2678 179.621C82.3583 179.667 82.4484 179.735 82.5268 179.791C82.9572 179.599 83.3862 179.373 83.8374 179.079C83.8497 179.079 83.8497 179.068 83.8497 179.068C83.9731 179 84.0867 178.921 84.2213 178.83C84.3009 178.774 84.391 178.718 84.4814 178.661C85.0576 178.278 85.6908 177.893 86.3337 177.519C86.3337 177.519 86.3337 177.519 86.3457 177.519C86.3568 177.509 86.3787 177.498 86.391 177.486C86.391 177.486 86.391 177.486 86.4022 177.486C87.4409 176.899 88.5368 176.346 89.5989 175.905C89.7678 175.837 89.9267 175.769 90.0949 175.702C91.1574 175.284 92.3881 174.787 93.6882 174.357H93.699C94.0376 174.245 94.4106 174.131 94.76 174.029H94.7942C95.2013 173.917 95.5963 173.815 96.003 173.748C96.8727 173.567 97.7537 173.465 98.6008 173.488C98.7024 173.488 98.8039 173.488 98.9057 173.499C99.414 173.522 99.9226 173.612 100.397 173.76C100.657 173.827 100.917 173.917 101.154 174.042C101.425 174.154 101.662 174.29 101.91 174.471H101.923C101.99 174.504 102.057 174.549 102.115 174.595C102.294 174.73 102.464 174.866 102.622 175.023C103.334 175.691 103.775 176.526 104.124 177.407C104.158 177.509 104.203 177.599 104.237 177.701C104.441 178.232 104.621 178.774 104.813 179.317V179.328C104.994 179.847 105.186 180.356 105.423 180.83C105.581 181.135 105.74 181.406 105.898 181.677C105.909 181.677 105.92 181.688 105.92 181.688V181.699C107.254 183.755 109.038 184.67 111.49 185.426C111.772 185.517 112.054 185.597 112.336 185.687H112.347C112.686 185.788 113.025 185.89 113.365 186.003C113.421 186.015 113.477 186.026 113.533 186.049C113.544 186.06 113.544 186.06 113.544 186.049C114.177 186.241 114.788 186.444 115.386 186.646C115.68 186.749 115.962 186.861 116.234 186.963C117.815 187.584 119.25 188.365 120.435 189.528C120.571 189.662 120.706 189.798 120.83 189.945C121.022 190.149 121.203 190.375 121.373 190.612C122.106 190.927 122.897 191.12 123.688 191.154C124.128 191.177 124.57 191.154 125.01 191.075H125.02C126.163 190.906 127.269 190.408 128.263 189.538C129.087 188.963 129.788 188.217 130.398 187.416C130.827 186.918 131.222 186.387 131.629 185.868C132.363 184.818 133.188 183.822 133.832 182.716C134.792 181.519 135.74 180.322 136.712 179.136C138.124 177.464 139.502 175.793 140.823 174.154V174.144C143.783 170.461 146.437 166.993 148.516 164.259C150.211 162.034 151.52 160.283 152.3 159.313C152.458 159.12 152.604 158.928 152.752 158.724C152.774 158.69 152.785 158.669 152.808 158.645C153.079 158.318 153.339 157.979 153.587 157.64C156.682 153.54 159.517 149.192 161.776 144.583C161.89 144.243 162.003 143.904 162.104 143.566C163.527 138.832 164.003 133.988 164.984 129.154C165.934 124.431 166.193 119.698 166.001 114.875C165.865 111.115 165.154 106.325 166.261 102.687C166.273 102.676 166.273 102.676 166.273 102.665C166.283 102.598 166.318 102.553 166.34 102.495C166.249 101.807 166.148 101.117 166.057 100.428ZM122.457 153.02H122.503C122.298 153.146 122.096 153.258 121.892 153.359C121.802 153.394 121.701 153.415 121.61 153.449C121.632 153.359 121.644 153.269 121.655 153.179C121.667 153.111 121.677 153.043 121.689 152.965C121.734 152.965 121.779 152.975 121.824 152.975C122.039 152.998 122.242 153.02 122.457 153.02ZM127.224 42.3807C127.133 42.3922 127.043 42.4042 126.952 42.4261C126.773 41.9175 126.58 41.4216 126.4 40.9124C126.67 41.4093 126.952 41.8953 127.224 42.3807ZM97.9457 33.9778C97.9349 33.8985 97.9234 33.8186 97.9117 33.7402C98.2734 31.8204 98.4545 29.9451 98.3638 28.2163C99.0409 28.3524 99.7072 28.4984 100.375 28.6576C99.222 30.803 98.4762 32.9943 97.9457 33.9778Z" fill="white"/>
<path d="M101.961 27.3217C98.4127 25.5148 94.5497 27.5827 92.3814 30.5019C89.7692 34.0153 88.3684 38.5444 87.9094 42.8514C87.4084 47.573 90.546 53.9732 96.4935 51.6521C98.3788 50.9185 99.7717 49.2675 100.929 47.6748C103.169 44.5877 104.61 40.9812 105.188 37.2178C105.725 33.7324 105.541 29.1451 101.961 27.3217ZM127.194 31.4905C125.22 29.3235 122.144 27.1309 119.345 29.2676C116.618 31.3503 117.005 34.9475 117.867 37.8682C118.735 40.8073 119.901 43.8812 121.882 46.2606C122.824 47.391 124.137 48.4469 125.622 48.6914C132.664 49.8488 131.173 35.8526 127.194 31.4905ZM121.324 55.303C120.737 53.3919 119.231 51.7758 117.626 50.6415C115.792 49.3468 113.553 49.0795 111.482 49.9413C109.175 50.9029 107.775 53.0759 107.223 55.4373C107.165 55.6851 107.112 55.9444 107.07 56.209C106.809 57.1535 106.823 58.1282 107.361 59.0333C107.983 60.0742 109.172 60.7224 110.388 60.4902C111.478 60.2796 112.161 59.4389 113.099 58.9516C113.821 58.5764 114.595 58.4214 115.367 58.6687C116.23 58.9471 117.088 59.5903 118.09 59.7137C119.271 59.86 120.476 59.337 121.086 58.2893C121.602 57.398 121.62 56.27 121.324 55.303Z" fill="#E2E8F0"/>
<path d="M153.079 78.6058C152.209 78.8086 151.396 78.7293 150.605 78.504C150.808 79.1592 151.023 79.826 151.238 80.4812C151.272 80.5935 151.306 80.7059 151.351 80.8197C151.418 80.8086 151.487 80.7861 151.543 80.7747C152.3 80.5821 153.022 80.2436 153.701 79.6788C154.208 79.249 153.655 78.4701 153.079 78.6058ZM146.449 79.7695C145.861 79.3283 145.251 78.9104 144.63 78.537C144.574 78.504 144.518 78.4701 144.46 78.4361C144.167 78.255 143.862 78.0862 143.557 77.9279C143.24 77.759 142.912 77.5998 142.586 77.4655C142.586 77.4655 142.586 77.4655 142.574 77.4535C142.507 77.4205 142.438 77.397 142.371 77.3631C142.281 77.1255 142.19 76.9113 142.111 76.6746C142.123 76.6632 142.123 76.6632 142.111 76.6632C142.065 76.5502 142.032 76.437 141.987 76.3237C142.032 76.3361 142.065 76.3577 142.111 76.3691C142.337 76.4595 142.574 76.5388 142.8 76.6181C142.63 76.3466 142.461 76.0759 142.292 75.793C142.032 75.3979 141.795 74.9915 141.558 74.5842C141.423 74.37 141.298 74.1549 141.174 73.941C141.162 73.941 141.174 73.9287 141.174 73.9287C141.162 73.9071 141.162 73.8957 141.151 73.8722C141.14 73.8617 141.14 73.8617 141.129 73.8617C140.53 73.5685 139.92 73.2856 139.299 73.014C138.734 72.7659 138.169 72.5172 137.592 72.2919C137.006 72.0428 136.407 71.8052 135.809 71.5805C135.154 71.3309 134.498 71.0942 133.832 70.8914C131.731 70.2246 129.551 69.7502 127.37 69.6259C124.32 69.4561 121.214 70.123 118.379 71.2405C115.714 72.2919 112.845 73.9287 110.845 76.008C108.597 78.3238 108.327 81.3499 109.569 84.2427C110.869 87.2698 113.544 89.3482 115.973 91.4369C118.345 93.4819 120.616 95.6727 122.503 98.1687C126.4 103.332 128.817 109.431 131.696 115.202C132.002 115.836 132.33 116.468 132.657 117.088C132.917 117.575 133.447 117.665 133.888 117.507C134.352 117.338 134.701 116.897 134.521 116.321C134.115 115.069 133.673 113.825 133.199 112.583L133.188 112.571C132.725 111.318 132.205 110.087 131.651 108.867C130.263 105.727 128.625 102.7 126.704 99.8521C125.676 98.3279 124.57 96.8259 123.395 95.4021C122.683 94.5429 121.938 93.7189 121.169 92.9286C119.058 90.7598 116.775 88.7937 114.9 86.4116C113.647 84.818 111.783 82.389 112.099 80.1985C112.099 80.176 112.11 80.1646 112.11 80.1532C112.177 79.6563 112.371 79.182 112.697 78.7293C112.833 78.537 112.992 78.3454 113.149 78.1646C113.85 77.3751 114.731 76.6962 115.51 76.0306C116.301 75.364 117.114 74.7313 117.961 74.1219C117.973 74.1099 117.984 74.1099 117.995 74.0984C118.39 73.8269 118.797 73.5451 119.215 73.2856C121.802 71.6475 124.66 70.8226 127.743 71.1281C128.963 71.2525 130.149 71.5352 131.302 71.9296C131.312 71.9296 131.335 71.941 131.347 71.941C132.86 72.4718 134.307 73.1951 135.673 74.008C135.684 74.0194 135.695 74.0194 135.706 74.0314C135.797 74.0768 135.876 74.1219 135.967 74.1786C136.577 74.5508 137.187 74.9347 137.796 75.3186C138.079 75.4998 138.361 75.6806 138.644 75.8599C138.959 76.0531 139.265 76.2559 139.581 76.4595H139.592C140.789 77.2045 141.976 77.9402 143.218 78.6172C143.455 78.7527 143.692 78.8774 143.941 79.0009C144.145 79.1141 144.359 79.227 144.574 79.3283C145.443 79.7696 146.381 80.176 147.342 80.4812C147.329 80.4692 147.318 80.4577 147.307 80.4577C147.025 80.2211 146.731 79.9834 146.449 79.7695ZM122.209 148.287C120.931 150.558 119.487 152.772 117.928 154.907C117.916 154.929 117.905 154.952 117.894 154.963C116.821 156.443 115.702 157.889 114.55 159.289C114.539 159.313 114.516 159.323 114.505 159.346C114.087 159.933 113.669 160.521 113.24 161.098C111.128 164.01 108.959 166.756 106.734 169.319C107.502 168.483 108.282 167.649 109.061 166.823C110.112 165.705 111.184 164.588 112.246 163.48C112.246 163.48 112.246 163.469 112.257 163.469C113.07 162.621 113.872 161.785 114.674 160.927C114.686 160.916 114.686 160.916 114.686 160.904C114.81 160.792 114.923 160.667 115.036 160.554C115.747 159.809 116.459 159.052 117.159 158.285C117.702 157.697 118.244 157.098 118.775 156.5C118.797 156.489 118.797 156.476 118.808 156.466C119.023 156.207 119.215 155.935 119.407 155.663C119.633 155.37 119.859 155.077 120.073 154.771C121.125 152.805 122.096 150.796 123.033 148.75C123.123 148.548 123.078 148.345 122.942 148.22C122.762 148.005 122.401 147.949 122.209 148.287ZM75.5576 26.669C75.5468 26.6918 75.5246 26.7249 75.5126 26.7483C75.3549 26.9964 75.2191 27.246 75.0833 27.5044C75.0274 27.6855 74.9707 27.8543 74.9259 28.0241V28.0355C74.7901 28.4644 74.6652 28.8823 74.5528 29.3112C74.9259 28.5218 75.3206 27.7534 75.7619 26.9964C75.9427 26.669 76.1347 26.353 76.3375 26.0363C76.3597 25.9805 76.3936 25.9354 76.4279 25.8901C76.609 25.5951 76.8009 25.3019 77.0037 25.0198C77.0722 24.9066 77.1395 24.8056 77.2071 24.7038C77.3876 24.4551 77.5577 24.207 77.7382 23.9694C77.8962 23.778 78.0428 23.574 78.1897 23.3941C78.5856 22.8849 78.9914 22.4001 79.4327 21.9138C79.7712 21.5299 80.1335 21.1565 80.5048 20.784C80.8217 20.468 81.1383 20.1522 81.4766 19.8468C81.8043 19.5307 82.132 19.2252 82.4706 18.932C82.3348 18.9086 82.1882 18.9423 82.0524 19.0441C79.3753 21.1345 77.2191 23.7543 75.5576 26.669ZM61.2132 131.333C61.4725 133.671 61.766 136.009 62.0261 138.348C62.1165 139.127 62.1949 139.895 62.2745 140.675C62.4319 139.285 62.568 137.884 62.7035 136.484C62.7035 136.45 62.7143 136.405 62.7143 136.371V136.36C62.5118 134.879 62.3199 133.411 62.1496 131.932C62.0828 131.423 61.5851 131.221 61.2132 131.333ZM166.261 102.687C166.182 101.885 166.091 101.083 165.99 100.281C165.82 98.9031 165.617 97.5255 165.38 96.1479C164.465 90.7703 163.065 85.496 161.099 80.4013C160.173 78.0411 159.157 75.7139 157.947 73.4883C157.936 73.4667 157.936 73.4433 157.925 73.4213C156.027 69.5919 153.869 65.8983 152.04 62.0358C150.199 58.1728 148.618 54.1847 147.115 50.1868C146.719 49.1363 146.335 48.097 145.963 47.0456C145.624 46.0969 145.285 45.1597 144.946 44.2111C144.946 44.1996 144.946 44.1996 144.935 44.1894C142.8 38.1789 140.711 32.1476 138.056 26.3304C134.611 18.7848 129.765 11.7144 122.084 8.01993C116.2 5.19562 109.704 4.31487 103.231 4.26981C101.595 4.25838 99.9457 4.30373 98.3184 4.38305C96.568 4.46115 94.76 4.56387 92.93 4.73271C90.683 4.93636 88.4009 5.24097 86.1867 5.7267C85.0461 5.7952 83.9058 5.93038 82.7529 6.2584C80.4609 6.92407 78.2125 7.86251 76.1908 9.14971C72.1812 11.7144 68.8035 15.2609 66.5896 19.4853C65.3697 21.8005 64.5677 24.3193 63.5508 26.7248C63.5055 26.8273 63.4604 26.9294 63.4151 27.03C62.4896 29.1773 61.382 31.2208 59.6313 32.9048C57.8016 34.6766 55.9374 36.5408 55.7794 39.2293C55.6779 40.8569 56.2879 42.3015 57.3943 43.239C57.4063 43.239 57.4063 43.251 57.4177 43.251C57.4517 43.284 57.4847 43.3189 57.5301 43.3417C58.1179 43.8157 58.8515 44.1318 59.6878 44.278C63.0765 44.8767 67.9564 44.9674 70.9489 42.7427C70.7008 45.3748 70.5542 48.0179 70.3512 50.626C70.0126 54.976 69.73 59.3476 68.9955 63.6616C68.7239 65.2996 68.34 66.9142 67.9003 68.5075C65.6068 70.4622 62.8735 71.7947 59.9029 72.4387C58.0497 72.8443 56.0963 72.947 54.199 72.8112C52.1882 72.665 50.3125 72.02 48.3581 71.546C48.0427 71.4667 47.715 71.6025 47.4888 71.8286C46.2578 71.0488 44.6537 70.8461 43.2529 71.0488C39.9204 71.5352 35.8203 74.0314 34.1712 77.0471C32.4658 80.1646 33.3132 84.3316 34.1153 87.5969C35.9218 94.8938 40.1808 101.287 42.8582 108.257C44.2923 111.973 45.1394 115.756 45.4218 119.733C45.7495 124.161 45.8508 128.623 45.9069 133.062C45.9643 138.167 45.8508 143.249 45.7381 148.355C45.6819 150.863 45.6369 153.37 45.523 155.878C45.4104 158.442 45.1394 161.04 45.2968 163.615C45.2968 163.615 45.2968 163.627 45.3092 163.639C45.2752 163.965 45.3764 164.293 45.6927 164.564C46.2239 165.027 46.7772 165.412 47.3419 165.717C47.5684 165.841 47.7934 165.954 48.0304 166.032H48.0427C48.7652 166.349 49.5327 166.53 50.4029 166.609C52.0524 166.745 53.6901 166.36 55.1476 165.592C56.4907 164.881 57.6436 163.83 58.7611 162.814C59.3036 162.328 59.8467 161.842 60.4442 161.424C60.6145 161.3 60.7954 161.21 60.9639 161.098C60.9759 161.447 60.9759 161.796 60.9873 162.147C61.0092 162.611 61.1792 162.949 61.4051 163.22C62.0029 164.26 62.7719 165.163 63.686 165.841C63.6974 165.852 63.6974 165.863 63.6974 165.863C63.7098 165.863 63.7098 165.863 63.7098 165.863C64.7704 166.688 66.0246 167.22 67.4259 167.4C69.2671 167.636 71.4356 167.196 72.9144 165.987C73.4455 167.265 73.5807 168.664 73.6946 170.065C73.83 171.68 74.0334 173.251 74.587 174.775C75.6819 177.86 77.9758 180.118 81.3861 180.277C85.126 180.447 88.1185 178.097 91.27 176.447C94.738 174.64 98.2172 174.719 101.91 175.476C102.08 177.78 102.6 179.836 104.102 181.734C105.627 183.688 107.807 185.055 110.043 186.049C112.55 187.155 115.206 187.9 117.668 189.11C119.565 190.058 121.779 191.492 122.57 193.572C122.626 193.729 122.729 193.831 122.807 193.956C122.615 195.458 124.863 196.542 125.676 194.939C129.731 187.009 136.193 180.74 142.292 174.38C148.584 167.84 154.966 161.469 158.874 153.146C162.962 144.448 165.087 135.083 166.148 125.584C166.995 117.97 167.051 110.301 166.261 102.687ZM63.7548 33.2884C66.5212 29.6846 67.3124 25.1895 69.2671 21.1799C71.0394 17.5193 73.7619 14.3228 77.0383 11.9172C78.2579 11.0251 79.5454 10.2122 80.8902 9.48824C85.3285 8.07638 90.1856 7.7832 94.8738 7.59095C94.8847 7.59095 94.8847 7.59095 94.8958 7.59095C95.3482 7.58044 95.7882 7.55702 96.2403 7.5456C103.831 7.2401 111.94 7.34283 119.058 10.3026C126.592 13.4306 131.369 19.8125 134.837 26.951C136.204 29.775 137.413 32.6549 138.53 35.5696V35.5819C139.491 38.0329 140.371 40.5288 141.241 43.0143V43.0248C142.009 45.2276 142.755 47.419 143.535 49.6106C143.535 49.6218 143.535 49.6218 143.546 49.6323C143.58 49.7461 143.613 49.8584 143.658 49.9708C144.484 52.2874 145.331 54.614 146.223 56.9072C146.223 56.9183 146.234 56.9183 146.234 56.9288C146.946 58.7477 147.691 60.5555 148.504 62.3398C148.584 62.5206 148.663 62.6904 148.741 62.8706C150.165 65.9437 151.769 68.9368 153.779 71.6475C153.779 71.6694 153.768 71.6814 153.757 71.7043C153.587 72.3823 153.259 72.9689 152.819 73.4544C152.514 73.8052 152.153 74.0984 151.746 74.336C151.362 74.6076 150.933 74.8104 150.493 74.9687C150.142 75.0924 149.792 75.1943 149.431 75.2622C149.34 75.2847 149.25 75.3075 149.159 75.3186C148.798 75.3751 148.437 75.409 148.075 75.4205C147.6 75.4544 147.126 75.443 146.641 75.4205C146.2 75.3979 145.749 75.3526 145.307 75.2961C145.229 75.2961 145.161 75.2847 145.082 75.2733C144.788 75.2393 144.484 75.2063 144.178 75.1612C143.975 75.1375 143.76 75.1035 143.546 75.0819C143.24 74.9236 142.947 74.765 142.642 74.6181C142.145 74.3475 141.648 74.1099 141.151 73.8722C141.14 73.8617 141.14 73.8617 141.129 73.8617C140.53 73.5685 139.92 73.2856 139.299 73.014C138.734 72.7659 138.169 72.5172 137.592 72.2919C137.006 72.0428 136.407 71.8052 135.809 71.5805C135.154 71.3309 134.498 71.0942 133.832 70.8914C131.731 70.2246 129.551 69.7502 127.37 69.6259C124.32 69.4561 121.214 70.123 118.379 71.2405C115.714 72.2919 112.845 73.9287 110.845 76.008C108.597 78.3238 108.327 81.3499 109.569 84.2427C110.869 87.2698 113.544 89.3482 115.973 91.4369C118.345 93.4819 120.616 95.6727 122.503 98.1687C126.4 103.332 128.817 109.431 131.696 115.202C132.002 115.836 132.33 116.468 132.657 117.088C132.917 117.575 133.447 117.665 133.888 117.507C134.352 117.338 134.701 116.897 134.521 116.321C134.115 115.069 133.673 113.825 133.199 112.583L133.188 112.571C132.725 111.318 132.205 110.087 131.651 108.867C130.263 105.727 128.625 102.7 126.704 99.8521C125.676 98.3279 124.57 96.8259 123.395 95.4021C122.683 94.5429 121.938 93.7189 121.169 92.9286C119.058 90.7598 116.775 88.7937 114.9 86.4116C113.647 84.818 111.783 82.389 112.099 80.1985C112.099 80.176 112.11 80.1646 112.11 80.1532C112.177 79.6563 112.371 79.182 112.697 78.7293C112.833 78.537 112.992 78.3454 113.149 78.1646C113.85 77.3751 114.731 76.6962 115.51 76.0306C116.301 75.364 117.114 74.7313 117.961 74.1219C117.973 74.1099 117.984 74.1099 117.995 74.0984C118.39 73.8269 118.797 73.5451 119.215 73.2856C121.802 71.6475 124.66 70.8226 127.743 71.1281C128.963 71.2525 130.149 71.5352 131.302 71.9296C131.312 71.9296 131.335 71.941 131.347 71.941C132.86 72.4718 134.307 73.1951 135.673 74.008C135.684 74.0194 135.695 74.0194 135.706 74.0314C135.797 74.0768 135.876 74.1219 135.967 74.1786C136.577 74.5508 137.187 74.9347 137.796 75.3186C138.079 75.4998 138.361 75.6806 138.644 75.8599C138.959 76.0531 139.265 76.2559 139.581 76.4595H139.592C140.789 77.2045 141.976 77.9402 143.218 78.6172C143.455 78.7527 143.692 78.8774 143.941 79.0009C144.145 79.1141 144.359 79.227 144.574 79.3283C145.443 79.7696 146.381 80.176 147.342 80.4812C147.635 80.5719 147.917 80.6503 148.211 80.7059H148.222C148.357 80.7513 148.493 80.7747 148.629 80.7963C149.543 80.9774 150.47 81.0114 151.351 80.8197C151.418 80.8086 151.487 80.7861 151.543 80.7747C152.3 80.5821 153.022 80.2436 153.701 79.6788C154.208 79.249 153.655 78.4701 153.079 78.6058C152.209 78.8086 151.396 78.7293 150.605 78.504C149.916 78.3343 149.25 78.0411 148.573 77.7137C148.426 77.6449 148.29 77.5779 148.144 77.4986C148.099 77.4763 148.041 77.4535 147.995 77.431C148.189 77.431 148.369 77.4205 148.549 77.4082H148.594C149.138 77.3856 149.668 77.3301 150.199 77.2279C150.211 77.2279 150.211 77.2279 150.221 77.2279C151.86 76.9008 153.429 76.0411 154.514 74.7755C154.807 74.4607 155.055 74.0984 155.271 73.7259C156.051 75.726 156.773 77.7476 157.462 79.7242C158.151 81.6894 158.771 83.6894 159.336 85.7111C159.349 85.7111 159.349 85.7216 159.349 85.733C159.359 85.7564 159.359 85.778 159.371 85.8015C159.924 87.766 160.41 89.7544 160.839 91.7538C160.839 91.7643 160.851 91.7763 160.851 91.7877C160.974 92.3741 161.099 92.9511 161.212 93.5378C161.302 94.0016 161.392 94.4534 161.472 94.9286V94.9388C161.483 94.9617 161.494 94.9842 161.483 95.0182C163.155 103.964 163.787 113.135 163.516 122.241C163.244 131.661 161.675 141.216 157.79 149.846C156.795 152.049 155.665 154.161 154.401 156.183C153.893 157.019 153.361 157.832 152.808 158.645C152.785 158.669 152.774 158.69 152.752 158.724C151.429 160.634 150.017 162.475 148.516 164.26C146.833 166.259 145.059 168.179 143.207 170.044L143.195 170.054C142.755 170.506 142.315 170.947 141.863 171.386C138.417 174.764 134.803 177.951 131.55 181.531C129.302 184.027 127.189 186.659 125.337 189.46C125.326 189.46 125.326 189.471 125.326 189.471C125.02 189.934 124.727 190.397 124.445 190.861C124.378 190.77 124.298 190.691 124.219 190.6C123.507 189.765 122.716 189.042 121.859 188.41C121.802 188.353 121.746 188.308 121.677 188.284C120.345 187.291 118.854 186.511 117.306 185.812C117.273 185.788 117.25 185.777 117.215 185.766C117.34 185.687 117.442 185.607 117.566 185.54C117.566 185.529 117.577 185.529 117.577 185.529C119.317 184.365 120.977 183.1 122.57 181.745C122.581 181.734 122.581 181.734 122.593 181.734C126.445 178.47 129.957 174.73 133.267 171.038C133.38 170.912 133.481 170.8 133.583 170.675L133.594 170.664C138.7 164.938 143.49 158.781 146.426 151.643C146.743 150.863 145.703 150.197 145.251 150.975C141.321 157.584 137.413 164.271 132.227 169.998C129.776 172.708 127.077 175.069 124.242 177.272L124.231 177.283C122.638 178.503 121.022 179.689 119.373 180.83C117.702 182.015 116.008 183.168 114.302 184.32C114.234 184.365 114.2 184.422 114.143 184.478C114.042 184.432 113.929 184.387 113.827 184.342C113.522 184.219 113.229 184.105 112.923 183.97C112.438 183.777 111.952 183.564 111.478 183.326C111.388 183.292 111.298 183.247 111.207 183.202C110.744 182.976 110.28 182.727 109.84 182.468C109.648 182.355 109.456 182.231 109.265 182.096C108.767 181.779 108.282 181.417 107.84 181.011C107.773 180.966 107.705 180.897 107.638 180.842C107.513 180.728 107.4 180.604 107.288 180.492C107.017 180.197 106.767 179.915 106.564 179.61C106.26 179.203 106.01 178.785 105.818 178.356C105.559 177.802 105.367 177.226 105.231 176.606C105.175 176.413 105.141 176.221 105.107 176.018C105.017 175.521 104.96 174.99 104.926 174.437C104.915 174.301 104.859 174.189 104.825 174.063C106.225 172.799 107.581 171.477 108.892 170.122C111.117 167.817 113.195 165.366 115.104 162.791C116.831 160.442 118.334 157.991 119.7 155.472C119.7 155.472 119.7 155.461 119.713 155.461C119.825 155.223 119.95 155.008 120.073 154.771C121.125 152.805 122.096 150.796 123.033 148.75C123.123 148.548 123.078 148.345 122.942 148.22C122.762 148.005 122.401 147.949 122.209 148.287C120.931 150.558 119.487 152.772 117.928 154.907C117.916 154.929 117.905 154.952 117.894 154.963C116.821 156.443 115.702 157.889 114.55 159.289C114.539 159.313 114.516 159.323 114.505 159.346C114.02 159.968 113.511 160.576 113.003 161.186C110.246 164.473 107.299 167.58 104.124 170.449L104.113 170.461C103.424 171.083 102.735 171.692 102.024 172.29C101.865 172.245 101.718 172.189 101.56 172.166C101.164 172.042 100.77 171.941 100.363 171.872C100.216 171.839 100.058 171.816 99.9111 171.782C99.2452 171.692 98.5666 171.634 97.8895 171.634C97.2794 171.624 96.6693 171.647 96.0598 171.715C94.9523 171.816 93.8564 172.042 92.8174 172.37C92.7504 172.38 92.6819 172.404 92.6146 172.426C92.1063 172.595 91.6206 172.788 91.1462 173.014C88.4914 174.234 86.1868 176.153 83.4084 177.045H83.397C83.3408 177.069 83.2958 177.091 83.2396 177.103C82.7421 177.26 82.1774 177.385 81.6015 177.452C80.6079 177.577 79.5907 177.509 78.7664 177C78.7091 176.967 78.664 176.933 78.6078 176.888C78.0088 176.48 77.6138 175.882 77.3657 175.228C77.1053 174.573 76.9821 173.838 76.9476 173.15C76.9367 172.99 76.9244 172.844 76.9244 172.686C76.9025 172.154 76.8914 171.613 76.8793 171.071C76.868 170.134 76.8463 169.196 76.7664 168.28C76.6763 167.4 76.5408 166.53 76.2693 165.694C76.2251 165.558 76.18 165.422 76.1347 165.288C89.5866 155.878 101.651 143.849 110.664 130.124C110.766 129.977 110.856 129.819 110.959 129.673C110.97 129.662 110.97 129.65 110.981 129.639C112.404 127.424 113.748 125.166 115.025 122.885C116.594 120.557 118.153 118.218 119.599 115.813C120.073 115.023 118.821 114.31 118.345 115.112C118.221 115.327 118.086 115.553 117.961 115.767C117.961 115.78 117.95 115.78 117.95 115.791C115.612 119.744 113.387 123.708 110.733 127.47C110.721 127.493 110.698 127.526 110.676 127.55C110.631 127.628 110.562 127.707 110.517 127.786C108.021 131.119 105.4 134.338 102.712 137.444C100.205 140.348 97.584 143.137 94.8504 145.814C94.8396 145.825 94.8174 145.848 94.8051 145.859C91.6536 148.966 88.3556 151.913 84.9449 154.703C84.6517 154.941 84.3571 155.178 84.0636 155.404C81.9855 157.086 79.8509 158.703 77.67 160.227C77.67 160.238 77.6592 160.238 77.6592 160.238C76.484 161.098 75.2873 161.921 74.0896 162.734C73.8183 162.712 73.536 162.723 73.2767 162.814C73.2082 162.814 73.1301 162.824 73.0616 162.848C72.5537 163.017 72.0565 163.208 71.5714 163.434C71.2437 163.594 70.9274 163.717 70.4527 163.853C69.6276 164.078 68.69 164.18 67.8772 164.078C67.8318 164.078 67.6963 164.056 67.6741 164.044C67.5726 164.033 67.459 164.01 67.3575 163.977C67.1313 163.932 66.9063 163.853 66.6801 163.785C66.657 163.773 66.4881 163.717 66.4199 163.694C66.3638 163.661 66.2842 163.627 66.2619 163.615C66.0469 163.515 65.8441 163.4 65.641 163.277C65.4368 163.153 65.234 163.029 65.0423 162.893C65.0192 162.881 64.9408 162.814 64.8843 162.791C64.839 162.746 64.7597 162.678 64.7489 162.667C64.6347 162.576 64.5449 162.475 64.443 162.385C64.4542 162.294 64.4995 162.238 64.4995 162.147C64.7705 157.144 64.3646 152.016 63.9687 147.022C63.9017 146.141 63.811 145.261 63.7206 144.379V144.368C63.4382 141.691 63.0651 139.037 62.7143 136.371V136.36C62.5118 134.879 62.3199 133.411 62.1496 131.932C62.0828 131.423 61.5851 131.221 61.2132 131.333C61.1678 131.344 61.1228 131.367 61.0774 131.39C60.9077 131.48 60.7954 131.661 60.8173 131.932C61.1679 136.97 61.0204 141.985 61.0435 147.022C61.0543 150.919 60.9077 154.839 60.9309 158.748C60.4442 158.895 59.9699 159.12 59.507 159.38C59.0435 159.628 58.6034 159.923 58.1744 160.182C57.8248 160.397 57.4847 160.622 57.1462 160.836C56.8752 161.018 56.6157 161.198 56.3441 161.367C55.8139 161.718 55.2834 162.057 54.7403 162.374C54.5934 162.452 54.4468 162.531 54.3003 162.611C53.7686 162.893 53.2158 163.141 52.6394 163.322C52.1882 163.446 51.7247 163.525 51.2504 163.548C51.0584 163.56 50.8544 163.56 50.6514 163.536C50.2455 163.515 49.8274 163.458 49.4093 163.367C48.8664 163.243 48.3471 163.062 47.8616 162.836C47.737 162.779 47.6138 162.712 47.4888 162.644C47.4435 162.621 47.3873 162.588 47.342 162.566C48.0644 158.748 48.1662 154.715 48.4264 150.863C48.5955 148.276 48.6856 145.678 48.743 143.08C48.776 141.342 48.7995 139.59 48.7995 137.851C48.8214 133.445 48.7199 129.028 48.5387 124.624C48.4375 122.139 48.3359 119.643 48.0304 117.169V117.157C47.8508 115.598 47.6015 114.063 47.2176 112.538C45.4888 105.489 41.7396 99.1296 38.8597 92.5213C37.4133 89.2124 36.1592 85.7666 35.4821 82.2091C35.0982 80.1862 35.2448 78.3003 37.0171 76.9897C37.6726 76.5049 38.4293 76.188 39.1421 75.8044C40.0343 75.3075 40.8922 74.7539 41.83 74.336C41.8973 74.3021 41.9535 74.2796 42.022 74.257H42.0334C42.9595 73.8392 44.0097 73.5337 45.0379 73.692C45.8847 73.8269 46.7772 74.2796 47.5111 74.6869C49.205 75.6118 50.3017 77.4655 51.6685 78.7747C53.0353 80.0853 54.5484 81.316 56.3556 81.9384C57.2024 82.2316 58.1633 82.4578 59.0666 82.3674C60.0948 82.2655 60.6145 81.9835 61.4166 81.3611C61.7206 81.1132 61.5286 80.5719 61.1793 80.4917C60.388 80.322 59.6767 80.1412 58.8747 80.0288C57.914 79.9044 57.0104 79.7242 56.0963 79.3968C54.2321 78.7293 52.628 77.7242 51.3065 76.2559C50.8322 75.7365 50.4144 75.1612 49.9962 74.5842C52.4021 75.6572 55.1927 76.0306 57.8125 75.8383C57.8248 75.8383 57.8248 75.8383 57.8248 75.8383C58.6941 75.7815 59.5409 75.6572 60.343 75.476C62.5346 74.9801 64.5785 74.0429 66.4088 72.7773C65.7429 74.2691 64.997 75.7139 64.4773 77.261C64.2853 77.8146 64.4881 78.2889 64.8612 78.6058H64.8723C65.3914 79.0576 66.2619 79.1592 66.8159 78.6058C66.8159 78.5944 66.8267 78.5944 66.8381 78.5824C66.8381 78.5719 66.8489 78.5719 66.8489 78.5608L66.8612 78.5494C68.3515 77.0245 69.1983 74.9566 69.955 73.0035C70.724 71.0374 71.2767 69.0044 71.6834 66.9262C71.6949 66.8809 71.7069 66.8355 71.7069 66.7914C71.7069 66.7799 71.7069 66.7679 71.718 66.7565C72.5537 62.5876 72.8475 58.2962 72.9712 54.0489C72.994 53.3938 73.0052 52.7278 73.0163 52.0727V52.0273C73.0734 48.6166 73.0734 45.1937 73.6153 41.8271C74.2142 38.044 74.8352 34.2145 76.0442 30.5654C77.3987 26.4653 79.5234 22.6482 82.7875 19.7788C83.1603 19.4403 82.8545 18.9771 82.4706 18.932C82.3348 18.9086 82.1882 18.9422 82.0524 19.0441C79.3753 21.1345 77.2191 23.7543 75.5576 26.6689C75.5468 26.6918 75.5246 26.7248 75.5126 26.7483C75.3549 26.9964 75.2191 27.246 75.0833 27.5043C73.8977 29.73 72.9832 32.1136 72.3158 34.5531C72.3158 34.5645 72.305 34.5879 72.305 34.5985C71.9658 35.8063 71.718 37.0154 71.5029 38.2353C71.2996 38.2807 71.0971 38.3714 70.9036 38.5288C70.7913 38.609 70.69 38.7211 70.5996 38.8454L70.5882 38.8568C69.9333 39.7376 69.0517 40.3138 68.0577 40.6976C67.8549 40.7767 67.6509 40.8445 67.4476 40.9124C67.3232 40.9467 67.1887 40.9917 67.0529 41.0248H67.0409C66.9504 41.0371 66.8834 41.0596 66.7927 41.0821C66.3292 41.184 65.8549 41.251 65.3806 41.2963C65.0423 41.3417 64.6915 41.3651 64.3415 41.3651C63.7428 41.3868 63.1448 41.3868 62.568 41.3651C62.343 41.3528 62.1165 41.3417 61.9017 41.3312C61.6299 41.3198 61.3598 41.2963 61.0997 41.2858C60.8624 41.2624 60.5914 41.251 60.3322 41.2173C60.151 41.1954 59.9699 41.1605 59.8125 41.0936C59.6536 41.0485 59.4956 40.9797 59.3712 40.8899C59.2135 40.7767 59.078 40.6192 58.9873 40.4156C58.8515 40.0875 58.8407 39.715 58.8969 39.3435C58.9543 38.9361 59.1009 38.5288 59.2697 38.2017C59.282 38.1902 59.282 38.1788 59.2928 38.1683V38.1563C60.309 36.259 62.4442 35.0049 63.7548 33.2884ZM62.1496 131.932C62.0828 131.423 61.5851 131.221 61.2132 131.333C61.4725 133.671 61.766 136.009 62.0261 138.348C62.1057 139.127 62.1949 139.895 62.2745 140.675C62.4319 139.285 62.568 137.884 62.7035 136.484C62.7035 136.45 62.7143 136.405 62.7143 136.371V136.36C62.5118 134.879 62.3199 133.411 62.1496 131.932ZM82.0524 19.0441C79.3753 21.1345 77.2191 23.7543 75.5576 26.669C75.5468 26.6918 75.5246 26.7249 75.5126 26.7483C75.3549 26.9964 75.2191 27.246 75.0833 27.5044C75.0274 27.6855 74.9707 27.8543 74.9259 28.0241V28.0355C74.7901 28.4644 74.6652 28.8823 74.5528 29.3112C74.9259 28.5218 75.3206 27.7534 75.7619 26.9964C75.9427 26.6813 76.1347 26.353 76.3375 26.0363C76.3597 25.9805 76.3936 25.9354 76.4279 25.8901C76.609 25.5951 76.8009 25.3019 77.0037 25.0198C77.0722 24.9066 77.1395 24.8056 77.2071 24.7038C77.3876 24.4551 77.5685 24.207 77.7382 23.9694C77.8962 23.778 78.0428 23.574 78.1897 23.3941C78.5856 22.8849 78.9914 22.4001 79.4327 21.9138C79.7712 21.5299 80.1335 21.1565 80.5048 20.784C80.8217 20.468 81.1383 20.1522 81.4766 19.8468C81.8043 19.5307 82.132 19.2252 82.4706 18.932C82.3348 18.9086 82.1882 18.9423 82.0524 19.0441ZM122.942 148.22C122.762 148.005 122.401 147.949 122.209 148.287C120.931 150.558 119.487 152.772 117.928 154.907C117.916 154.929 117.905 154.952 117.894 154.963C116.821 156.443 115.702 157.889 114.55 159.289C114.539 159.313 114.516 159.323 114.505 159.346C114.087 159.933 113.669 160.521 113.24 161.098C111.128 164.01 108.959 166.756 106.734 169.319C107.502 168.483 108.282 167.649 109.061 166.823C110.112 165.705 111.184 164.588 112.246 163.48C112.246 163.48 112.246 163.469 112.257 163.469C113.07 162.621 113.872 161.785 114.674 160.927C114.686 160.916 114.686 160.916 114.686 160.904C114.81 160.792 114.923 160.667 115.036 160.554C115.747 159.809 116.459 159.052 117.159 158.285C117.702 157.697 118.244 157.098 118.775 156.5C118.797 156.489 118.797 156.476 118.808 156.466C119.023 156.207 119.215 155.935 119.407 155.663C119.633 155.37 119.859 155.077 120.073 154.771C121.125 152.805 122.096 150.796 123.033 148.75C123.123 148.548 123.078 148.345 122.942 148.22ZM147.307 80.4577C147.025 80.2211 146.731 79.9834 146.449 79.7695C145.861 79.3283 145.251 78.9104 144.63 78.537C144.574 78.504 144.518 78.4701 144.46 78.4361C144.167 78.255 143.862 78.0862 143.557 77.9279C143.24 77.759 142.912 77.5998 142.586 77.4655C142.586 77.4655 142.586 77.4655 142.574 77.4535C142.507 77.4205 142.438 77.397 142.371 77.3631C142.281 77.1255 142.19 76.9113 142.111 76.6746C142.123 76.6632 142.123 76.6632 142.111 76.6632C142.065 76.5502 142.032 76.437 141.987 76.3237C142.032 76.3361 142.065 76.3577 142.111 76.3691C142.337 76.4595 142.574 76.5388 142.8 76.6296C142.8 76.6296 142.8 76.6296 142.8 76.6181C142.63 76.3466 142.461 76.0759 142.292 75.793C142.032 75.3979 141.795 74.9915 141.558 74.5842C141.423 74.37 141.298 74.1549 141.174 73.941C141.162 73.941 141.174 73.9287 141.174 73.9287C141.162 73.9071 141.162 73.8957 141.151 73.8722C141.14 73.8617 141.14 73.8617 141.129 73.8617C140.53 73.5685 139.92 73.2856 139.299 73.014C138.734 72.7659 138.169 72.5172 137.592 72.2919C137.006 72.0428 136.407 71.8052 135.809 71.5805C135.154 71.3309 134.498 71.0942 133.832 70.8914C131.731 70.2246 129.551 69.7502 127.37 69.6259C124.32 69.4561 121.214 70.123 118.379 71.2405C115.714 72.2919 112.845 73.9287 110.845 76.008C108.597 78.3238 108.327 81.3499 109.569 84.2427C110.869 87.2698 113.544 89.3482 115.973 91.4369C118.345 93.4819 120.616 95.6727 122.503 98.1687C126.4 103.332 128.817 109.431 131.696 115.202C132.002 115.836 132.33 116.468 132.657 117.088C132.917 117.575 133.447 117.665 133.888 117.507C134.352 117.338 134.701 116.897 134.521 116.321C134.115 115.069 133.673 113.825 133.199 112.583L133.188 112.571C132.725 111.318 132.205 110.087 131.651 108.867C130.263 105.727 128.625 102.7 126.704 99.8521C125.676 98.3279 124.57 96.8259 123.395 95.4021C122.683 94.5429 121.938 93.7189 121.169 92.9286C119.058 90.7598 116.775 88.7937 114.9 86.4116C113.647 84.818 111.783 82.389 112.099 80.1985C112.099 80.176 112.11 80.1646 112.11 80.1532C112.177 79.6563 112.371 79.182 112.697 78.7293C112.833 78.537 112.992 78.3454 113.149 78.1646C113.85 77.3751 114.731 76.6962 115.51 76.0306C116.301 75.364 117.114 74.7313 117.961 74.1219C117.973 74.1099 117.984 74.1099 117.995 74.0984C118.39 73.8269 118.797 73.5451 119.215 73.2856C121.802 71.6475 124.66 70.8226 127.743 71.1281C128.963 71.2525 130.149 71.5352 131.302 71.9296C131.312 71.9296 131.335 71.941 131.347 71.941C132.86 72.4718 134.307 73.1951 135.673 74.008C135.684 74.0194 135.695 74.0194 135.706 74.0314C135.797 74.0768 135.876 74.1219 135.967 74.1786C136.577 74.5508 137.187 74.9347 137.796 75.3186C138.079 75.4998 138.361 75.6806 138.644 75.8599C138.959 76.0531 139.265 76.2559 139.581 76.4595H139.592C140.789 77.2045 141.976 77.9402 143.218 78.6172C143.455 78.7527 143.692 78.8774 143.941 79.0009C144.145 79.1141 144.359 79.227 144.574 79.3283C145.443 79.7696 146.381 80.176 147.342 80.4812C147.329 80.4692 147.318 80.4577 147.307 80.4577ZM153.079 78.6058C152.209 78.8086 151.396 78.7293 150.605 78.504C150.808 79.1592 151.023 79.826 151.238 80.4812C151.272 80.5935 151.306 80.7059 151.351 80.8197C151.418 80.8086 151.487 80.7861 151.543 80.7747C152.3 80.5821 153.022 80.2436 153.701 79.6788C154.208 79.249 153.655 78.4701 153.079 78.6058Z" fill="#E2E8F0"/>
</g>
<defs>
<clipPath id="clip0_147_781">
<rect width="200" height="200" fill="white"/>
</clipPath>
</defs>
</svg>
