	<svg
							width="25"
							height="25"
							viewBox="0 0 25 25"
							fill="none"
							xmlns="http://www.w3.org/2000/svg"
						>
							<path
								d="M13.5 21.5C14.0523 21.5 14.5 21.0523 14.5 20.5C14.5 19.9477 14.0523 19.5 13.5 19.5C12.9477 19.5 12.5 19.9477 12.5 20.5C12.5 21.0523 12.9477 21.5 13.5 21.5Z"
								fill="#64748B"
							/>
							<path
								d="M21.5 11.5C21.5 10.9477 21.0523 10.5 20.5 10.5C19.9477 10.5 19.5 10.9477 19.5 11.5C19.5 12.0523 19.9477 12.5 20.5 12.5C21.0523 12.5 21.5 12.0523 21.5 11.5Z"
								fill="#64748B"
							/>
							<path
								d="M20.4299 14.7679C20.9082 15.0441 21.072 15.6557 20.7959 16.134C20.5197 16.6123 19.9082 16.7761 19.4299 16.5C18.9516 16.2238 18.7877 15.6123 19.0638 15.134C19.34 14.6557 19.9516 14.4918 20.4299 14.7679Z"
								fill="#64748B"
							/>
							<path
								d="M17.8674 19.7942C18.3457 19.5181 18.5096 18.9065 18.2334 18.4282C17.9573 17.9499 17.3457 17.786 16.8674 18.0621C16.3891 18.3383 16.2252 18.9499 16.5014 19.4282C16.7775 19.9065 17.3891 20.0703 17.8674 19.7942Z"
								fill="#64748B"
							/>
							<path
								d="M19.4269 8.49998C18.9487 8.77612 18.3371 8.61225 18.0609 8.13396C17.7848 7.65566 17.9487 7.04407 18.4269 6.76793C18.9052 6.49179 19.5168 6.65566 19.793 7.13396C20.0691 7.61225 19.9052 8.22384 19.4269 8.49998Z"
								fill="#64748B"
							/>
							<path
								fill-rule="evenodd"
								clip-rule="evenodd"
								d="M12.5 5C8.35786 5 5 8.35786 5 12.5C5 15.3771 6.62022 17.8772 9 19.1352V15.25C9 14.8358 9.33579 14.5 9.75 14.5C10.1642 14.5 10.5 14.8358 10.5 15.25V20.75C10.5 21.1642 10.1642 21.5 9.75 21.5H4.25C3.83579 21.5 3.5 21.1642 3.5 20.75C3.5 20.3358 3.83579 20 4.25 20H7.52362C5.09903 18.3881 3.5 15.6314 3.5 12.5C3.5 7.52944 7.52944 3.5 12.5 3.5C13.7572 3.5 14.9561 3.75823 16.0449 4.22524C16.4256 4.38852 16.6018 4.82948 16.4386 5.21016C16.2753 5.59083 15.8343 5.76707 15.4536 5.60379C14.5482 5.21543 13.5502 5 12.5 5Z"
								fill="#64748B"
							/>
						</svg>