<svg width="16" height="17" viewBox="0 0 16 17" fill="none" xmlns="http://www.w3.org/2000/svg">
<g id="trash-can-simple">
<path id="Vector" fill-rule="evenodd" clip-rule="evenodd" d="M5.05612 3.83331C5.52062 2.66199 6.66341 1.83331 8.00076 1.83331C9.33816 1.83331 10.481 2.66199 10.9454 3.83331H14.1668C14.443 3.83331 14.6668 4.05717 14.6668 4.33331C14.6668 4.60945 14.443 4.83331 14.1668 4.83331H13.3023L12.706 14.0751C12.6664 14.689 12.157 15.1666 11.5418 15.1666H4.45854C3.84337 15.1666 3.3339 14.689 3.29429 14.0751L2.69805 4.83331H1.8335C1.55736 4.83331 1.3335 4.60945 1.3335 4.33331C1.3335 4.05717 1.55736 3.83331 1.8335 3.83331H5.05612ZM6.17457 3.83331C6.55973 3.23181 7.2341 2.83331 8.00076 2.83331C8.7675 2.83331 9.44183 3.23181 9.82703 3.83331H6.17457Z" fill="#64748B"/>
</g>
</svg>
